<?xml version="1.0" encoding="UTF-8" standalone="no"?>
<!-- Created with Inkscape (http://www.inkscape.org/) -->

<svg
   width="240mm"
   height="40mm"
   viewBox="0 0 240 40"
   version="1.1"
   id="svg1"
   xml:space="preserve"
   xmlns="http://www.w3.org/2000/svg"
   xmlns:svg="http://www.w3.org/2000/svg"><defs
     id="defs1" /><g
     id="layer1"><path
       style="font-size:31.7591px;font-family:'Maple Mono';-inkscape-font-specification:'Maple Mono';text-align:center;text-anchor:middle;fill:#0195ff;stroke-width:0.330825"
       d="m 18.421976,13.012998 q -0.444628,-1.143328 -1.397401,-1.587955 -0.952773,-0.476386 -2.159618,-0.476386 -1.77851,0 -2.794801,0.952773 -1.016291,0.952773 -1.016291,2.318414 0,0.984532 0.285832,1.619714 0.285831,0.635182 0.793977,1.04805 0.539905,0.381109 1.238605,0.635182 0.6987,0.254073 1.492678,0.476387 1.524436,0.412868 2.82656,0.921014 1.333882,0.476386 2.318414,1.270364 0.984532,0.793977 1.524437,2.000823 0.571663,1.206846 0.571663,3.080633 0,1.524436 -0.508145,2.763041 -0.508146,1.206846 -1.460919,2.064342 -0.921014,0.857496 -2.254896,1.333882 -1.333882,0.476387 -3.017114,0.476387 -1.42916,0 -2.636006,-0.349351 -1.206845,-0.34935 -2.127859,-1.016291 Q 9.1800778,29.845321 8.5766549,28.892548 7.973232,27.908016 7.7509183,26.669411 7.655641,26.065988 7.973232,25.65312 q 0.317591,-0.412868 0.9845321,-0.412868 0.635182,0 1.1115689,0.254072 0.476386,0.254073 0.730459,0.952773 0.444627,1.302123 1.460918,1.969065 1.016292,0.635182 2.604247,0.635182 1.016291,0 1.810268,-0.254073 0.825737,-0.254073 1.397401,-0.73046 0.571664,-0.476386 0.857495,-1.175086 0.317591,-0.6987 0.317591,-1.619714 0,-1.143328 -0.34935,-1.842028 -0.317591,-0.730459 -0.921014,-1.175087 -0.571663,-0.476386 -1.3974,-0.762218 Q 15.785971,21.206846 14.864957,20.952773 13.499315,20.571664 12.26071,20.127036 11.053865,19.65065 10.132851,18.920191 9.243596,18.189731 8.7036913,17.078163 8.1955457,15.966594 8.1955457,14.283362 q 0,-1.3974 0.4763865,-2.508969 0.4763865,-1.143327 1.3338818,-1.969064 0.889255,-0.8257366 2.12786,-1.270364 1.238605,-0.4446274 2.731283,-0.4446274 1.270364,0 2.350173,0.3493501 1.079809,0.317591 1.905546,0.952773 0.825737,0.6034229 1.3974,1.4926773 0.571664,0.857496 0.793978,1.905546 0.158795,0.666941 -0.190555,1.048051 -0.317591,0.381109 -1.079809,0.381109 -0.635182,0 -1.016291,-0.285832 -0.34935,-0.285832 -0.603423,-0.921014 z m 11.846156,8.543198 v 8.924307 q 0,0.730459 -0.349351,1.079809 -0.34935,0.349351 -1.079809,0.349351 -0.730459,0 -1.079809,-0.349351 -0.34935,-0.34935 -0.34935,-1.079809 V 9.5194971 q 0,-0.7304593 0.34935,-1.0798094 0.34935,-0.3493501 1.079809,-0.3493501 0.730459,0 1.079809,0.3493501 0.349351,0.3493501 0.349351,1.0798094 v 7.5904249 q 0.444627,-1.524437 1.524436,-2.413692 1.07981,-0.889254 2.82656,-0.889254 1.270364,0 2.318415,0.444627 1.079809,0.412868 1.842027,1.206846 0.793978,0.793977 1.206846,1.905546 0.444628,1.111568 0.444628,2.47721 v 10.639298 q 0,0.730459 -0.349351,1.079809 -0.34935,0.349351 -1.079809,0.349351 -0.730459,0 -1.079809,-0.349351 -0.34935,-0.34935 -0.34935,-1.079809 v -9.813562 q 0,-0.825736 -0.222314,-1.556196 -0.222314,-0.762218 -0.666941,-1.333882 -0.412869,-0.571664 -1.048051,-0.921014 -0.635182,-0.34935 -1.492677,-0.34935 -0.857496,0 -1.587955,0.508146 -0.6987,0.508145 -1.206846,1.270364 -0.508146,0.730459 -0.793978,1.619714 -0.285831,0.889255 -0.285831,1.651473 z m 26.360064,2.604246 v -8.924307 q 0,-0.730459 0.34935,-1.079809 0.34935,-0.34935 1.079809,-0.34935 0.73046,0 1.07981,0.34935 0.34935,0.34935 0.34935,1.079809 v 15.244368 q 0,0.730459 -0.34935,1.079809 -0.34935,0.349351 -1.07981,0.349351 -0.730459,0 -1.079809,-0.349351 -0.34935,-0.34935 -0.34935,-1.079809 v -1.873787 q -0.444627,1.524437 -1.524437,2.413692 -1.079809,0.889255 -2.82656,0.889255 -1.270364,0 -2.350173,-0.412869 -1.04805,-0.444627 -1.842028,-1.238605 -0.762218,-0.793977 -1.206846,-1.905546 -0.412868,-1.111568 -0.412868,-2.477209 V 15.236135 q 0,-0.730459 0.34935,-1.079809 0.34935,-0.34935 1.079809,-0.34935 0.73046,0 1.07981,0.34935 0.34935,0.34935 0.34935,1.079809 v 9.813562 q 0,0.825737 0.222314,1.587955 0.222313,0.730459 0.635182,1.302123 0.444627,0.571664 1.079809,0.921014 0.635182,0.34935 1.492678,0.34935 0.857495,0 1.556196,-0.508146 0.730459,-0.508145 1.238605,-1.238604 0.508145,-0.762219 0.793977,-1.651474 0.285832,-0.889254 0.285832,-1.651473 z m 15.689005,0.317591 q 0,2.286655 0.666941,3.429983 0.6987,1.143328 2.032582,1.143328 0.635182,0 1.238605,-0.09528 0.603423,-0.09528 1.333882,-0.444627 0.635182,-0.34935 1.111569,-0.158796 0.508146,0.158796 0.857496,0.762219 0.381109,0.635182 0.222313,1.175086 -0.127036,0.508146 -0.730459,0.825737 -0.952773,0.508146 -2.064341,0.635182 -1.111569,0.158796 -2.445451,0.158796 -1.143328,0 -2.096101,-0.412869 -0.921014,-0.412868 -1.587955,-1.238605 -0.666941,-0.857495 -1.04805,-2.159618 -0.34935,-1.302124 -0.34935,-3.080633 l 0.03176,-12.735399 q 0,-0.635182 -0.317591,-0.952773 -0.317591,-0.317591 -0.952773,-0.317591 h -2.350173 q -0.635182,0 -0.984532,-0.317591 -0.317591,-0.34935 -0.317591,-0.9845323 0,-0.635182 0.317591,-0.952773 0.34935,-0.3493501 0.984532,-0.3493501 h 3.938128 q 1.302123,0 1.905546,0.635182 0.635182,0.6034229 0.635182,1.9055464 z m 15.27614,6.00247 q 0,0.730459 -0.34935,1.079809 -0.34935,0.349351 -1.079809,0.349351 -0.730459,0 -1.07981,-0.349351 -0.34935,-0.34935 -0.34935,-1.079809 V 9.5194971 q 0,-0.7304593 0.34935,-1.0798094 0.349351,-0.3493501 1.07981,-0.3493501 0.730459,0 1.079809,0.3493501 0.34935,0.3493501 0.34935,1.0798094 V 21.651473 l 7.145798,-7.177556 q 0.34935,-0.34935 0.6987,-0.508146 0.381109,-0.158795 0.793978,-0.158795 0.444627,0 0.762218,0.190554 0.317591,0.190555 0.444627,0.508146 0.158796,0.285832 0.09528,0.635182 -0.06352,0.34935 -0.38111,0.666941 l -4.763865,4.859142 5.621361,9.464212 q 0.222314,0.34935 0.222314,0.6987 0,0.317591 -0.158796,0.571664 -0.127036,0.222314 -0.381109,0.34935 -0.254073,0.158796 -0.539905,0.158796 -0.539904,0 -1.04805,-0.127037 -0.508145,-0.09528 -0.889255,-0.762218 l -4.859142,-8.257366 -2.763042,2.794801 z M 115.19201,27.39987 q 0.60343,0 0.98453,0.444628 0.41287,0.412868 0.41287,0.952773 0,0.285832 -0.15879,0.571664 -0.12704,0.254072 -0.50815,0.635182 -0.50814,0.476386 -1.07981,0.825736 -0.57166,0.34935 -1.2386,0.603423 -0.63518,0.254073 -1.36564,0.34935 -0.6987,0.127037 -1.49268,0.127037 -1.84203,0 -3.30295,-0.603423 -1.42916,-0.635182 -2.44545,-1.77851 -0.98453,-1.175087 -1.52444,-2.82656 -0.5399,-1.683232 -0.5399,-3.747574 0,-1.810268 0.38111,-3.461742 0.41287,-1.683232 1.27036,-2.921837 0.88926,-1.270364 2.28666,-2.000823 1.3974,-0.762218 3.42998,-0.762218 1.90555,0 3.17591,0.666941 1.27037,0.635182 2.03258,1.810268 0.79398,1.175087 1.11157,2.763042 0.34935,1.556196 0.34935,3.429983 0,0.571664 -0.41287,1.04805 -0.41286,0.444628 -1.07981,0.444628 h -9.623 q 0.12703,1.270364 0.5399,2.254896 0.41287,0.952773 1.04805,1.587955 0.63518,0.603423 1.46092,0.921014 0.8575,0.317591 1.87379,0.317591 1.42916,0 2.25489,-0.444628 0.8575,-0.444627 1.33389,-0.825736 0.25407,-0.222314 0.41286,-0.285832 0.1588,-0.09528 0.41287,-0.09528 z m -9.33717,-5.97071 h 7.74922 q 0.15879,0 0.31759,-0.190555 0.19055,-0.190555 0.19055,-0.857496 0,-0.666941 -0.25407,-1.333882 -0.25407,-0.666941 -0.76222,-1.175087 -0.47638,-0.539904 -1.20684,-0.857495 -0.6987,-0.34935 -1.58796,-0.34935 -0.98453,0 -1.77851,0.34935 -0.76222,0.34935 -1.33388,0.984532 -0.53991,0.635182 -0.88926,1.524437 -0.31759,0.857495 -0.44462,1.905546 z m 18.73787,10.480503 q -0.73046,0 -1.07981,-0.349351 -0.34935,-0.34935 -0.34935,-1.079809 V 15.236135 q 0,-0.730459 0.34935,-1.079809 0.34935,-0.34935 1.07981,-0.34935 0.73046,0 1.07981,0.34935 0.34935,0.34935 0.34935,1.079809 v 1.873787 q 0.53991,-1.524437 2.00082,-2.413692 1.49268,-0.889254 3.84286,-0.889254 1.42916,0 2.31841,0.508145 0.92101,0.508146 1.42916,1.365641 0.50815,0.857496 0.6987,2.000824 0.19055,1.143327 0.19055,2.413691 v 0.38111 q 0,0.730459 -0.34935,1.079809 -0.34935,0.34935 -1.07981,0.34935 -0.73045,0 -1.0798,-0.34935 -0.34935,-0.34935 -0.34935,-1.079809 v -0.38111 q 0,-0.730459 -0.0953,-1.3974 -0.0953,-0.6987 -0.38111,-1.238605 -0.28583,-0.539905 -0.82574,-0.857496 -0.5399,-0.317591 -1.46092,-0.317591 -0.82573,0 -1.68323,0.285832 -0.85749,0.285832 -1.58795,0.825737 -0.6987,0.539905 -1.14333,1.333882 -0.44463,0.762218 -0.44463,1.746751 v 10.004116 q 0,0.730459 -0.34935,1.079809 -0.34935,0.349351 -1.07981,0.349351 z M 144.50569,21.42916 v 9.051343 q 0,0.730459 -0.34935,1.079809 -0.34935,0.349351 -1.07981,0.349351 -0.73046,0 -1.07981,-0.349351 -0.34935,-0.34935 -0.34935,-1.079809 V 10.948657 q 0,-1.3021235 0.60342,-1.9055464 0.63518,-0.635182 1.93731,-0.635182 h 4.92266 q 1.49268,0 2.7948,0.4446274 1.30212,0.4128683 2.25489,1.270364 0.95278,0.825737 1.49268,2.032582 0.53991,1.206846 0.53991,2.763042 0,1.556196 -0.57167,2.763042 -0.5399,1.206846 -1.49267,2.064341 -0.95278,0.825737 -2.2549,1.270364 -1.27036,0.412869 -2.76304,0.412869 z m 0,-2.858319 h 4.60507 q 0.85749,0 1.58795,-0.222314 0.76222,-0.254073 1.30213,-0.6987 0.57166,-0.444628 0.88925,-1.143328 0.34935,-0.6987 0.34935,-1.587955 0,-1.842028 -1.20684,-2.731283 -1.20685,-0.921013 -2.92184,-0.921013 h -3.33471 q -0.63518,0 -0.95277,0.317591 -0.31759,0.317591 -0.31759,0.952773 z m 20.96101,13.338822 q -1.14333,0 -2.15962,-0.38111 -0.98453,-0.381109 -1.71499,-1.238605 -0.73046,-0.889254 -1.17509,-2.286655 -0.41286,-1.429159 -0.41286,-3.52526 0,-2.191378 0.44462,-4.128683 0.44463,-1.969064 1.33388,-3.398224 0.92102,-1.460918 2.28666,-2.286655 1.3974,-0.857495 3.23943,-0.857495 1.52443,0 2.38193,0.762218 0.6987,0.635182 1.11157,1.556196 0.0635,-0.476387 0.12704,-0.921014 0.12703,-0.793978 0.5399,-1.079809 0.41287,-0.317591 1.07981,-0.317591 0.76222,0 1.04805,0.34935 0.31759,0.317591 0.19055,1.04805 -0.31759,1.873787 -0.47638,3.715815 -0.1588,1.810268 -0.12704,3.684055 0.0635,1.842028 0.31759,3.811092 0.28583,1.937305 0.79398,4.096924 0.1588,0.6987 -0.0953,1.04805 -0.25407,0.349351 -0.98453,0.349351 -0.73046,0 -1.17509,-0.349351 -0.44462,-0.34935 -0.60342,-1.04805 -0.38111,-1.556196 -0.63518,-3.017114 -0.19056,0.571663 -0.44463,1.111568 -0.6987,1.460919 -1.90554,2.381933 -1.17509,0.921014 -2.98536,0.921014 z m 0.28583,-2.858319 q 0.98453,0 1.81027,-0.508146 0.8575,-0.539905 1.46092,-1.492678 0.60342,-0.952773 0.95277,-2.286655 0.34935,-1.333882 0.34935,-2.953596 0,-0.762219 -0.0635,-1.651473 -0.0317,-0.921014 -0.28583,-1.683233 -0.25407,-0.762218 -0.82573,-1.270364 -0.53991,-0.539904 -1.58796,-0.539904 -0.98453,0 -1.84203,0.635182 -0.85749,0.603422 -1.49267,1.683232 -0.63519,1.079809 -1.0163,2.572487 -0.34935,1.492678 -0.34935,3.207669 0,2.032582 0.6987,3.17591 0.73046,1.111569 2.19138,1.111569 z m 16.95937,-7.495148 v 8.924307 q 0,0.730459 -0.34935,1.079809 -0.34935,0.349351 -1.07981,0.349351 -0.73046,0 -1.07981,-0.349351 -0.34935,-0.34935 -0.34935,-1.079809 V 15.236135 q 0,-0.730459 0.34935,-1.079809 0.34935,-0.34935 1.07981,-0.34935 0.73046,0 1.07981,0.34935 0.34935,0.34935 0.34935,1.079809 v 1.873787 q 0.44462,-1.524437 1.52443,-2.413692 1.07981,-0.889254 2.82656,-0.889254 1.27037,0 2.31842,0.444627 1.07981,0.412868 1.84203,1.206846 0.79397,0.793977 1.20684,1.905546 0.44463,1.111568 0.44463,2.47721 v 10.639298 q 0,0.730459 -0.34935,1.079809 -0.34935,0.349351 -1.07981,0.349351 -0.73046,0 -1.07981,-0.349351 -0.34935,-0.34935 -0.34935,-1.079809 v -9.813562 q 0,-0.825736 -0.22231,-1.556196 -0.22232,-0.762218 -0.66694,-1.333882 -0.41287,-0.571664 -1.04805,-0.921014 -0.63519,-0.34935 -1.49268,-0.34935 -0.8575,0 -1.58796,0.508146 -0.6987,0.508145 -1.20684,1.270364 -0.50815,0.730459 -0.79398,1.619714 -0.28583,0.889255 -0.28583,1.651473 z m 27.75747,5.843674 q 0.60342,0 0.98453,0.444628 0.41287,0.412868 0.41287,0.952773 0,0.285832 -0.15879,0.571664 -0.12704,0.254072 -0.50815,0.635182 -0.50814,0.476386 -1.07981,0.825736 -0.57166,0.34935 -1.2386,0.603423 -0.63519,0.254073 -1.36564,0.34935 -0.6987,0.127037 -1.49268,0.127037 -1.84203,0 -3.30295,-0.603423 -1.42916,-0.635182 -2.44545,-1.77851 -0.98453,-1.175087 -1.52444,-2.82656 -0.5399,-1.683232 -0.5399,-3.747574 0,-1.810268 0.38111,-3.461742 0.41287,-1.683232 1.27036,-2.921837 0.88926,-1.270364 2.28666,-2.000823 1.3974,-0.762218 3.42998,-0.762218 1.90555,0 3.17591,0.666941 1.27036,0.635182 2.03258,1.810268 0.79398,1.175087 1.11157,2.763042 0.34935,1.556196 0.34935,3.429983 0,0.571664 -0.41287,1.04805 -0.41287,0.444628 -1.07981,0.444628 h -9.623 q 0.12703,1.270364 0.5399,2.254896 0.41287,0.952773 1.04805,1.587955 0.63518,0.603423 1.46092,0.921014 0.8575,0.317591 1.87379,0.317591 1.42916,0 2.25489,-0.444628 0.8575,-0.444627 1.33388,-0.825736 0.25408,-0.222314 0.41287,-0.285832 0.1588,-0.09528 0.41287,-0.09528 z m -9.33717,-5.97071 h 7.74922 q 0.15879,0 0.31759,-0.190555 0.19055,-0.190555 0.19055,-0.857496 0,-0.666941 -0.25407,-1.333882 -0.25407,-0.666941 -0.76222,-1.175087 -0.47639,-0.539904 -1.20684,-0.857495 -0.69871,-0.34935 -1.58796,-0.34935 -0.98453,0 -1.77851,0.34935 -0.76222,0.34935 -1.33388,0.984532 -0.53991,0.635182 -0.88926,1.524437 -0.31759,0.857495 -0.44462,1.905546 z m 23.62877,3.048873 q 0,2.286655 0.66694,3.429983 0.6987,1.143328 2.03259,1.143328 0.63518,0 1.2386,-0.09528 0.60342,-0.09528 1.33388,-0.444627 0.63518,-0.34935 1.11157,-0.158796 0.50815,0.158796 0.8575,0.762219 0.38111,0.635182 0.22231,1.175086 -0.12704,0.508146 -0.73046,0.825737 -0.95277,0.508146 -2.06434,0.635182 -1.11157,0.158796 -2.44545,0.158796 -1.14333,0 -2.0961,-0.412869 -0.92102,-0.412868 -1.58796,-1.238605 -0.66694,-0.857495 -1.04805,-2.159618 -0.34935,-1.302124 -0.34935,-3.080633 l 0.0318,-12.735399 q 0,-0.635182 -0.31759,-0.952773 -0.31759,-0.317591 -0.95277,-0.317591 h -2.35018 q -0.63518,0 -0.98453,-0.317591 -0.31759,-0.34935 -0.31759,-0.9845323 0,-0.635182 0.31759,-0.952773 0.34935,-0.3493501 0.98453,-0.3493501 h 3.93813 q 1.30213,0 1.90555,0.635182 0.63518,0.6034229 0.63518,1.9055464 z"
       id="text1"
       aria-label="ShulkerPanel" /></g></svg>
