<?xml version="1.0" encoding="UTF-8" standalone="no"?>
<!-- Created with Inkscape (http://www.inkscape.org/) -->

<svg
   width="290mm"
   height="50mm"
   viewBox="0 0 290 50"
   version="1.1"
   id="svg1"
   xml:space="preserve"
   xmlns="http://www.w3.org/2000/svg"
   xmlns:svg="http://www.w3.org/2000/svg"><defs
     id="defs1" /><g
     id="layer1"><path
       style="font-size:31.7591px;font-family:'Maple Mono';-inkscape-font-specification:'Maple Mono';text-align:center;text-anchor:middle;fill:#0195ff;stroke-width:0.330825"
       d="m 65.492914,18.012998 q -0.444627,-1.143328 -1.3974,-1.587955 -0.952773,-0.476386 -2.159619,-0.476386 -1.77851,0 -2.794801,0.952773 -1.016291,0.952773 -1.016291,2.318414 0,0.984532 0.285832,1.619714 0.285832,0.635182 0.793977,1.04805 0.539905,0.381109 1.238605,0.635182 0.6987,0.254073 1.492678,0.476387 1.524437,0.412868 2.82656,0.921014 1.333882,0.476386 2.318414,1.270364 0.984532,0.793977 1.524437,2.000823 0.571664,1.206846 0.571664,3.080633 0,1.524436 -0.508146,2.763041 -0.508146,1.206846 -1.460919,2.064342 -0.921014,0.857496 -2.254896,1.333882 -1.333882,0.476387 -3.017114,0.476387 -1.42916,0 -2.636006,-0.349351 -1.206845,-0.34935 -2.127859,-1.016291 -0.921014,-0.6987 -1.524437,-1.651473 -0.603423,-0.984532 -0.825737,-2.223137 -0.09528,-0.603423 0.222314,-1.016291 0.317591,-0.412868 0.984532,-0.412868 0.635182,0 1.111569,0.254072 0.476386,0.254073 0.730459,0.952773 0.444627,1.302123 1.460919,1.969065 1.016291,0.635182 2.604246,0.635182 1.016291,0 1.810268,-0.254073 0.825737,-0.254073 1.397401,-0.73046 0.571664,-0.476386 0.857496,-1.175086 0.317591,-0.6987 0.317591,-1.619714 0,-1.143328 -0.349351,-1.842028 -0.317591,-0.730459 -0.921013,-1.175087 -0.571664,-0.476386 -1.397401,-0.762218 -0.793977,-0.285832 -1.714991,-0.539905 -1.365642,-0.381109 -2.604246,-0.825737 -1.206846,-0.476386 -2.12786,-1.206845 -0.889255,-0.73046 -1.42916,-1.842028 -0.508145,-1.111569 -0.508145,-2.794801 0,-1.3974 0.476386,-2.508969 0.476387,-1.143327 1.333882,-1.969064 0.889255,-0.825737 2.12786,-1.270364 1.238605,-0.444627 2.731283,-0.444627 1.270364,0 2.350173,0.34935 1.07981,0.317591 1.905546,0.952773 0.825737,0.603423 1.397401,1.492677 0.571663,0.857496 0.793977,1.905546 0.158796,0.666941 -0.190555,1.048051 -0.317591,0.381109 -1.079809,0.381109 -0.635182,0 -1.016291,-0.285832 -0.34935,-0.285832 -0.603423,-0.921014 z m 11.846156,8.543198 v 8.924307 q 0,0.730459 -0.34935,1.079809 -0.349351,0.349351 -1.07981,0.349351 -0.730459,0 -1.079809,-0.349351 -0.34935,-0.34935 -0.34935,-1.079809 V 14.519497 q 0,-0.730459 0.34935,-1.079809 0.34935,-0.34935 1.079809,-0.34935 0.730459,0 1.07981,0.34935 0.34935,0.34935 0.34935,1.079809 v 7.590425 q 0.444627,-1.524437 1.524436,-2.413692 1.07981,-0.889254 2.82656,-0.889254 1.270364,0 2.318415,0.444627 1.079809,0.412868 1.842027,1.206846 0.793978,0.793977 1.206846,1.905546 0.444628,1.111568 0.444628,2.47721 v 10.639298 q 0,0.730459 -0.34935,1.079809 -0.349351,0.349351 -1.07981,0.349351 -0.730459,0 -1.079809,-0.349351 -0.34935,-0.34935 -0.34935,-1.079809 v -9.813562 q 0,-0.825736 -0.222314,-1.556196 -0.222314,-0.762218 -0.666941,-1.333882 -0.412868,-0.571664 -1.04805,-0.921014 -0.635182,-0.34935 -1.492678,-0.34935 -0.857496,0 -1.587955,0.508146 -0.6987,0.508145 -1.206846,1.270364 -0.508146,0.730459 -0.793977,1.619714 -0.285832,0.889255 -0.285832,1.651473 z m 26.36006,2.604246 v -8.924307 q 0,-0.730459 0.34935,-1.079809 0.34935,-0.34935 1.07981,-0.34935 0.73046,0 1.07981,0.34935 0.34935,0.34935 0.34935,1.079809 v 15.244368 q 0,0.730459 -0.34935,1.079809 -0.34935,0.349351 -1.07981,0.349351 -0.73046,0 -1.07981,-0.349351 -0.34935,-0.34935 -0.34935,-1.079809 v -1.873787 q -0.44462,1.524437 -1.52443,2.413692 -1.07981,0.889255 -2.826563,0.889255 -1.270364,0 -2.350173,-0.412869 -1.04805,-0.444627 -1.842028,-1.238605 -0.762218,-0.793977 -1.206846,-1.905546 -0.412868,-1.111568 -0.412868,-2.477209 V 20.236135 q 0,-0.730459 0.34935,-1.079809 0.34935,-0.34935 1.07981,-0.34935 0.730459,0 1.079809,0.34935 0.34935,0.34935 0.34935,1.079809 v 9.813562 q 0,0.825737 0.222314,1.587955 0.222313,0.730459 0.635182,1.302123 0.444627,0.571664 1.079809,0.921014 0.635182,0.34935 1.492678,0.34935 0.857496,0 1.556196,-0.508146 0.73046,-0.508145 1.2386,-1.238604 0.50815,-0.762219 0.79398,-1.651474 0.28583,-0.889254 0.28583,-1.651473 z m 15.68901,0.317591 q 0,2.286655 0.66694,3.429983 0.6987,1.143328 2.03258,1.143328 0.63518,0 1.23861,-0.09528 0.60342,-0.09528 1.33388,-0.444627 0.63518,-0.34935 1.11157,-0.158796 0.50814,0.158796 0.85749,0.762219 0.38111,0.635182 0.22232,1.175086 -0.12704,0.508146 -0.73046,0.825737 -0.95277,0.508146 -2.06434,0.635182 -1.11157,0.158796 -2.44545,0.158796 -1.14333,0 -2.0961,-0.412869 -0.92102,-0.412868 -1.58796,-1.238605 -0.66694,-0.857495 -1.04805,-2.159618 -0.34935,-1.302124 -0.34935,-3.080633 l 0.0318,-12.735399 q 0,-0.635182 -0.31759,-0.952773 -0.31759,-0.317591 -0.95277,-0.317591 h -2.35018 q -0.63518,0 -0.98453,-0.317591 -0.31759,-0.34935 -0.31759,-0.984532 0,-0.635182 0.31759,-0.952773 0.34935,-0.34935 0.98453,-0.34935 h 3.93813 q 1.30212,0 1.90555,0.635182 0.63518,0.603422 0.63518,1.905546 z m 15.27614,6.00247 q 0,0.730459 -0.34935,1.079809 -0.34935,0.349351 -1.07981,0.349351 -0.73046,0 -1.07981,-0.349351 -0.34935,-0.34935 -0.34935,-1.079809 V 14.519497 q 0,-0.730459 0.34935,-1.079809 0.34935,-0.34935 1.07981,-0.34935 0.73046,0 1.07981,0.34935 0.34935,0.34935 0.34935,1.079809 v 12.131976 l 7.1458,-7.177556 q 0.34935,-0.34935 0.6987,-0.508146 0.38111,-0.158795 0.79397,-0.158795 0.44463,0 0.76222,0.190554 0.31759,0.190555 0.44463,0.508146 0.1588,0.285832 0.0953,0.635182 -0.0635,0.34935 -0.38111,0.666941 l -4.76387,4.859142 5.62136,9.464212 q 0.22232,0.34935 0.22232,0.6987 0,0.317591 -0.1588,0.571664 -0.12703,0.222314 -0.38111,0.34935 -0.25407,0.158796 -0.5399,0.158796 -0.53991,0 -1.04805,-0.127037 -0.50815,-0.09528 -0.88926,-0.762218 l -4.85914,-8.257366 -2.76304,2.794801 z m 27.59867,-3.080633 q 0.60342,0 0.98453,0.444628 0.41287,0.412868 0.41287,0.952773 0,0.285832 -0.15879,0.571664 -0.12704,0.254072 -0.50815,0.635182 -0.50815,0.476386 -1.07981,0.825736 -0.57166,0.34935 -1.2386,0.603423 -0.63519,0.254073 -1.36565,0.34935 -0.6987,0.127037 -1.49267,0.127037 -1.84203,0 -3.30295,-0.603423 -1.42916,-0.635182 -2.44545,-1.77851 -0.98453,-1.175087 -1.52444,-2.82656 -0.5399,-1.683232 -0.5399,-3.747574 0,-1.810268 0.38111,-3.461742 0.41287,-1.683232 1.27036,-2.921837 0.88926,-1.270364 2.28666,-2.000823 1.3974,-0.762218 3.42998,-0.762218 1.90555,0 3.17591,0.666941 1.27036,0.635182 2.03258,1.810268 0.79398,1.175087 1.11157,2.763042 0.34935,1.556196 0.34935,3.429983 0,0.571664 -0.41287,1.04805 -0.41287,0.444628 -1.07981,0.444628 h -9.623 q 0.12703,1.270364 0.5399,2.254896 0.41287,0.952773 1.04805,1.587955 0.63518,0.603423 1.46092,0.921014 0.85749,0.317591 1.87379,0.317591 1.42916,0 2.25489,-0.444628 0.8575,-0.444627 1.33388,-0.825736 0.25408,-0.222314 0.41287,-0.285832 0.1588,-0.09528 0.41287,-0.09528 z m -9.33717,-5.97071 h 7.74922 q 0.15879,0 0.31759,-0.190555 0.19055,-0.190555 0.19055,-0.857496 0,-0.666941 -0.25407,-1.333882 -0.25407,-0.666941 -0.76222,-1.175087 -0.47639,-0.539904 -1.20685,-0.857495 -0.6987,-0.34935 -1.58795,-0.34935 -0.98453,0 -1.77851,0.34935 -0.76222,0.34935 -1.33388,0.984532 -0.53991,0.635182 -0.88926,1.524437 -0.31759,0.857495 -0.44462,1.905546 z m 18.73787,10.480503 q -0.73046,0 -1.07981,-0.349351 -0.34935,-0.34935 -0.34935,-1.079809 V 20.236135 q 0,-0.730459 0.34935,-1.079809 0.34935,-0.34935 1.07981,-0.34935 0.73046,0 1.07981,0.34935 0.34935,0.34935 0.34935,1.079809 v 1.873787 q 0.5399,-1.524437 2.00082,-2.413692 1.49268,-0.889254 3.84285,-0.889254 1.42916,0 2.31842,0.508145 0.92101,0.508146 1.42916,1.365641 0.50814,0.857496 0.6987,2.000824 0.19055,1.143327 0.19055,2.413691 v 0.38111 q 0,0.730459 -0.34935,1.079809 -0.34935,0.34935 -1.07981,0.34935 -0.73046,0 -1.07981,-0.34935 -0.34935,-0.34935 -0.34935,-1.079809 v -0.38111 q 0,-0.730459 -0.0953,-1.3974 -0.0953,-0.6987 -0.38111,-1.238605 -0.28583,-0.539905 -0.82574,-0.857496 -0.5399,-0.317591 -1.46092,-0.317591 -0.82573,0 -1.68323,0.285832 -0.8575,0.285832 -1.58796,0.825737 -0.6987,0.539905 -1.14332,1.333882 -0.44463,0.762218 -0.44463,1.746751 v 10.004116 q 0,0.730459 -0.34935,1.079809 -0.34935,0.349351 -1.07981,0.349351 z M 191.57663,26.42916 v 9.051343 q 0,0.730459 -0.34935,1.079809 -0.34935,0.349351 -1.07981,0.349351 -0.73046,0 -1.07981,-0.349351 -0.34935,-0.34935 -0.34935,-1.079809 V 15.948657 q 0,-1.302124 0.60342,-1.905546 0.63518,-0.635182 1.93731,-0.635182 h 4.92266 q 1.49267,0 2.7948,0.444627 1.30212,0.412868 2.25489,1.270364 0.95278,0.825737 1.49268,2.032582 0.53991,1.206846 0.53991,2.763042 0,1.556196 -0.57167,2.763042 -0.5399,1.206846 -1.49268,2.064341 -0.95277,0.825737 -2.25489,1.270364 -1.27037,0.412869 -2.76304,0.412869 z m 0,-2.858319 h 4.60507 q 0.85749,0 1.58795,-0.222314 0.76222,-0.254073 1.30212,-0.6987 0.57167,-0.444628 0.88926,-1.143328 0.34935,-0.6987 0.34935,-1.587955 0,-1.842028 -1.20685,-2.731283 -1.20684,-0.921013 -2.92183,-0.921013 h -3.33471 q -0.63518,0 -0.95277,0.317591 -0.31759,0.317591 -0.31759,0.952773 z m 20.96101,13.338822 q -1.14333,0 -2.15962,-0.38111 -0.98453,-0.381109 -1.71499,-1.238605 -0.73046,-0.889254 -1.17509,-2.286655 -0.41287,-1.429159 -0.41287,-3.52526 0,-2.191378 0.44463,-4.128683 0.44463,-1.969064 1.33388,-3.398224 0.92102,-1.460918 2.28666,-2.286655 1.3974,-0.857495 3.23943,-0.857495 1.52443,0 2.38193,0.762218 0.6987,0.635182 1.11157,1.556196 0.0635,-0.476387 0.12703,-0.921014 0.12704,-0.793978 0.53991,-1.079809 0.41287,-0.317591 1.07981,-0.317591 0.76222,0 1.04805,0.34935 0.31759,0.317591 0.19055,1.04805 -0.31759,1.873787 -0.47638,3.715815 -0.1588,1.810268 -0.12704,3.684055 0.0635,1.842028 0.31759,3.811092 0.28583,1.937305 0.79398,4.096924 0.15879,0.6987 -0.0953,1.04805 -0.25407,0.349351 -0.98453,0.349351 -0.73046,0 -1.17509,-0.349351 -0.44463,-0.34935 -0.60342,-1.04805 -0.38111,-1.556196 -0.63518,-3.017114 -0.19056,0.571663 -0.44463,1.111568 -0.6987,1.460919 -1.90555,2.381933 -1.17508,0.921014 -2.98535,0.921014 z m 0.28583,-2.858319 q 0.98453,0 1.81027,-0.508146 0.85749,-0.539905 1.46092,-1.492678 0.60342,-0.952773 0.95277,-2.286655 0.34935,-1.333882 0.34935,-2.953596 0,-0.762219 -0.0635,-1.651473 -0.0318,-0.921014 -0.28583,-1.683233 -0.25407,-0.762218 -0.82574,-1.270364 -0.5399,-0.539904 -1.58795,-0.539904 -0.98453,0 -1.84203,0.635182 -0.85749,0.603422 -1.49268,1.683232 -0.63518,1.079809 -1.01629,2.572487 -0.34935,1.492678 -0.34935,3.207669 0,2.032582 0.6987,3.17591 0.73046,1.111569 2.19138,1.111569 z m 16.95937,-7.495148 v 8.924307 q 0,0.730459 -0.34935,1.079809 -0.34935,0.349351 -1.07981,0.349351 -0.73046,0 -1.07981,-0.349351 -0.34935,-0.34935 -0.34935,-1.079809 V 20.236135 q 0,-0.730459 0.34935,-1.079809 0.34935,-0.34935 1.07981,-0.34935 0.73046,0 1.07981,0.34935 0.34935,0.34935 0.34935,1.079809 v 1.873787 q 0.44462,-1.524437 1.52443,-2.413692 1.07981,-0.889254 2.82656,-0.889254 1.27037,0 2.31842,0.444627 1.07981,0.412868 1.84202,1.206846 0.79398,0.793977 1.20685,1.905546 0.44463,1.111568 0.44463,2.47721 v 10.639298 q 0,0.730459 -0.34935,1.079809 -0.34935,0.349351 -1.07981,0.349351 -0.73046,0 -1.07981,-0.349351 -0.34935,-0.34935 -0.34935,-1.079809 v -9.813562 q 0,-0.825736 -0.22232,-1.556196 -0.22231,-0.762218 -0.66694,-1.333882 -0.41286,-0.571664 -1.04805,-0.921014 -0.63518,-0.34935 -1.49267,-0.34935 -0.8575,0 -1.58796,0.508146 -0.6987,0.508145 -1.20685,1.270364 -0.50814,0.730459 -0.79397,1.619714 -0.28583,0.889255 -0.28583,1.651473 z m 27.75747,5.843674 q 0.60342,0 0.98453,0.444628 0.41287,0.412868 0.41287,0.952773 0,0.285832 -0.1588,0.571664 -0.12703,0.254072 -0.50814,0.635182 -0.50815,0.476386 -1.07981,0.825736 -0.57166,0.34935 -1.23861,0.603423 -0.63518,0.254073 -1.36564,0.34935 -0.6987,0.127037 -1.49267,0.127037 -1.84203,0 -3.30295,-0.603423 -1.42916,-0.635182 -2.44545,-1.77851 -0.98453,-1.175087 -1.52444,-2.82656 -0.5399,-1.683232 -0.5399,-3.747574 0,-1.810268 0.38111,-3.461742 0.41286,-1.683232 1.27036,-2.921837 0.88926,-1.270364 2.28666,-2.000823 1.3974,-0.762218 3.42998,-0.762218 1.90554,0 3.17591,0.666941 1.27036,0.635182 2.03258,1.810268 0.79398,1.175087 1.11157,2.763042 0.34935,1.556196 0.34935,3.429983 0,0.571664 -0.41287,1.04805 -0.41287,0.444628 -1.07981,0.444628 h -9.62301 q 0.12704,1.270364 0.53991,2.254896 0.41287,0.952773 1.04805,1.587955 0.63518,0.603423 1.46092,0.921014 0.85749,0.317591 1.87378,0.317591 1.42916,0 2.2549,-0.444628 0.8575,-0.444627 1.33388,-0.825736 0.25408,-0.222314 0.41287,-0.285832 0.1588,-0.09528 0.41287,-0.09528 z m -9.33718,-5.97071 h 7.74922 q 0.1588,0 0.3176,-0.190555 0.19055,-0.190555 0.19055,-0.857496 0,-0.666941 -0.25407,-1.333882 -0.25408,-0.666941 -0.76222,-1.175087 -0.47639,-0.539904 -1.20685,-0.857495 -0.6987,-0.34935 -1.58795,-0.34935 -0.98453,0 -1.77851,0.34935 -0.76222,0.34935 -1.33388,0.984532 -0.53991,0.635182 -0.88926,1.524437 -0.31759,0.857495 -0.44463,1.905546 z m 23.62878,3.048873 q 0,2.286655 0.66694,3.429983 0.6987,1.143328 2.03258,1.143328 0.63519,0 1.23861,-0.09528 0.60342,-0.09528 1.33388,-0.444627 0.63518,-0.34935 1.11157,-0.158796 0.50815,0.158796 0.8575,0.762219 0.3811,0.635182 0.22231,1.175086 -0.12704,0.508146 -0.73046,0.825737 -0.95277,0.508146 -2.06434,0.635182 -1.11157,0.158796 -2.44545,0.158796 -1.14333,0 -2.0961,-0.412869 -0.92102,-0.412868 -1.58796,-1.238605 -0.66694,-0.857495 -1.04805,-2.159618 -0.34935,-1.302124 -0.34935,-3.080633 l 0.0318,-12.735399 q 0,-0.635182 -0.31759,-0.952773 -0.31759,-0.317591 -0.95277,-0.317591 h -2.35018 q -0.63518,0 -0.98453,-0.317591 -0.31759,-0.34935 -0.31759,-0.984532 0,-0.635182 0.31759,-0.952773 0.34935,-0.34935 0.98453,-0.34935 h 3.93813 q 1.30212,0 1.90555,0.635182 0.63518,0.603422 0.63518,1.905546 z"
       id="text1"
       aria-label="ShulkerPanel" /><g
       id="layer1-8"
       transform="matrix(0.04125244,0,0,0.04125244,5.7871637,3.8787505)"><path
         id="path1"
         style="fill:#0195ff;fill-opacity:1;stroke-width:0.264583"
         transform="matrix(4.4447321,0,0,4.4447321,238.0336,444.22936)"
         d="M 142.078,77.808824 75.598454,116.19081 a 27.920007,27.920007 0 0 1 -27.920008,0 L -18.801096,77.808824 A 27.920008,27.920008 60.000001 0 1 -32.7611,53.629388 v -76.763964 a 27.920008,27.920008 120 0 1 13.960004,-24.179436 l 66.479543,-38.381982 a 27.920008,27.920008 2.6281691e-7 0 1 27.920008,0 L 142.078,-47.314012 a 27.920008,27.920008 60 0 1 13.96,24.179436 v 76.763964 a 27.920008,27.920008 120 0 1 -13.96,24.179436 z" /><path
         style="font-weight:500;font-size:202.242px;font-family:'Maple Mono';-inkscape-font-specification:'Maple Mono Medium';white-space:pre;fill:#ffffff"
         d="m 359.01348,564.72636 q -2.83139,-6.2695 -8.49416,-8.89864 -5.46054,-2.83139 -12.74125,-2.83139 -10.71883,0 -16.78609,5.66277 -6.06726,5.46054 -6.06726,13.75246 0,6.06726 1.61794,9.90986 1.82018,3.64035 4.85381,6.06726 3.03363,2.4269 7.28071,3.8426 4.24708,1.41569 9.10089,2.83138 9.90986,2.62915 18.40402,5.86502 8.49417,3.03363 14.96591,8.08968 6.47174,5.05605 10.1121,12.94349 3.8426,7.6852 3.8426,19.81972 0,9.70761 -3.23587,17.59505 -3.23588,7.88744 -9.30314,13.55022 -6.06726,5.46053 -14.76366,8.49416 -8.69641,3.03363 -20.02196,3.03363 -9.10089,0 -16.78609,-2.02242 -7.68519,-2.22466 -13.55021,-6.2695 -5.86502,-4.04484 -9.70762,-9.70762 -3.84259,-5.86502 -5.46053,-13.14573 -1.41569,-5.05605 0.80897,-8.29192 2.4269,-3.43811 7.88744,-3.43811 4.04484,0 7.07847,1.61793 3.23587,1.4157 5.25829,6.06726 2.83139,7.28071 8.89865,11.12331 6.2695,3.8426 15.57263,3.8426 6.06726,0 10.92107,-1.41569 5.05605,-1.61794 8.49416,-4.44933 3.43812,-2.83139 5.25829,-6.87623 1.82018,-4.24708 1.82018,-9.70761 0,-6.87623 -2.02242,-11.12331 -2.02242,-4.24709 -5.66277,-7.07847 -3.43812,-2.83139 -8.49417,-4.44933 -4.85381,-1.61793 -10.31434,-3.23587 -9.10089,-2.4269 -17.19057,-5.25829 -7.88744,-2.83139 -13.75246,-7.48296 -5.86501,-4.8538 -9.30313,-11.93227 -3.43811,-7.28072 -3.43811,-18.40403 0,-9.10089 3.03363,-16.3816 3.23587,-7.28071 8.89865,-12.539 5.66277,-5.46054 13.75245,-8.29193 8.08968,-2.83138 17.99954,-2.83138 8.08968,0 14.96591,2.02242 6.87623,2.02242 12.13452,5.66277 5.25829,3.64036 8.89865,8.89865 3.84259,5.25829 5.46053,11.5278 1.82018,5.46053 -0.60673,8.6964 -2.22466,3.03363 -8.08968,3.03363 -4.24708,0 -6.87622,-1.82018 -2.62915,-1.82017 -4.65157,-6.06726 z m 77.86325,54.60534 v 54.60535 q 0,5.46053 -2.62914,8.08968 -2.62915,2.4269 -7.88744,2.4269 -5.46054,0 -8.08968,-2.4269 -2.42691,-2.62915 -2.42691,-8.08968 V 551.78288 q 0,-8.69641 4.04484,-12.74125 4.24709,-4.24708 13.14574,-4.24708 h 30.94302 q 9.70762,0 18.20178,2.83138 8.49417,2.62915 14.76367,8.08968 6.47174,5.46054 9.90986,13.34798 3.64035,7.68519 3.64035,17.99954 0,10.1121 -3.64035,17.99953 -3.64036,7.88744 -9.90986,13.34798 -6.2695,5.25829 -14.76367,8.08968 -8.49416,2.83138 -18.20178,2.83138 z m 0,-20.02195 h 27.10043 q 5.25829,0 9.70762,-1.4157 4.65156,-1.41569 8.08968,-4.04484 3.43811,-2.83139 5.46053,-7.07847 2.02242,-4.24708 2.02242,-9.70761 0,-11.32556 -7.48295,-16.78609 -7.28071,-5.46053 -17.7973,-5.46053 H 445.3709 q -4.24708,0 -6.47175,2.22466 -2.02242,2.02242 -2.02242,6.2695 z"
         id="text10"
         transform="matrix(2.353298,0,0,2.353298,-431.92655,-920.24747)"
         aria-label="SP" /></g></g></svg>
