<?xml version="1.0" encoding="UTF-8" standalone="no"?>
<!-- Created with Inkscape (http://www.inkscape.org/) -->

<svg
   width="260mm"
   height="150mm"
   viewBox="0 0 260 150"
   version="1.1"
   id="svg1"
   xml:space="preserve"
   xmlns="http://www.w3.org/2000/svg"
   xmlns:svg="http://www.w3.org/2000/svg"><defs
     id="defs1" /><g
     id="layer1"><path
       style="font-size:31.7591px;font-family:'Maple Mono';-inkscape-font-specification:'Maple Mono';text-align:center;text-anchor:middle;fill:#0195ff;stroke-width:0.330825"
       d="m 28.421976,115.39927 q -0.444628,-1.14332 -1.397401,-1.58795 -0.952773,-0.47639 -2.159618,-0.47639 -1.77851,0 -2.794801,0.95278 -1.016291,0.95277 -1.016291,2.31841 0,0.98453 0.285832,1.61971 0.285831,0.63519 0.793977,1.04805 0.539905,0.38111 1.238605,0.63519 0.6987,0.25407 1.492678,0.47638 1.524436,0.41287 2.82656,0.92102 1.333882,0.47638 2.318414,1.27036 0.984532,0.79398 1.524437,2.00082 0.571663,1.20685 0.571663,3.08064 0,1.52443 -0.508145,2.76304 -0.508146,1.20684 -1.460919,2.06434 -0.921014,0.8575 -2.254896,1.33388 -1.333882,0.47639 -3.017114,0.47639 -1.42916,0 -2.636006,-0.34935 -1.206845,-0.34935 -2.127859,-1.01629 -0.921014,-0.6987 -1.524437,-1.65148 -0.603423,-0.98453 -0.825737,-2.22313 -0.09528,-0.60343 0.222314,-1.01629 0.317591,-0.41287 0.984532,-0.41287 0.635182,0 1.111569,0.25407 0.476386,0.25407 0.730459,0.95277 0.444627,1.30213 1.460918,1.96907 1.016292,0.63518 2.604247,0.63518 1.016291,0 1.810268,-0.25407 0.825737,-0.25408 1.397401,-0.73046 0.571664,-0.47639 0.857495,-1.17509 0.317591,-0.6987 0.317591,-1.61971 0,-1.14333 -0.34935,-1.84203 -0.317591,-0.73046 -0.921014,-1.17509 -0.571663,-0.47638 -1.3974,-0.76222 -0.793977,-0.28583 -1.714991,-0.5399 -1.365642,-0.38111 -2.604247,-0.82574 -1.206845,-0.47638 -2.127859,-1.20684 -0.889255,-0.73046 -1.42916,-1.84203 -0.508145,-1.11157 -0.508145,-2.7948 0,-1.3974 0.476386,-2.50897 0.476387,-1.14333 1.333882,-1.96906 0.889255,-0.82574 2.12786,-1.27037 1.238605,-0.44463 2.731283,-0.44463 1.270364,0 2.350173,0.34935 1.079809,0.31759 1.905546,0.95278 0.825737,0.60342 1.3974,1.49267 0.571664,0.8575 0.793978,1.90555 0.158795,0.66694 -0.190555,1.04805 -0.317591,0.38111 -1.079809,0.38111 -0.635182,0 -1.016291,-0.28583 -0.34935,-0.28583 -0.603423,-0.92102 z m 11.846156,8.5432 v 8.92431 q 0,0.73046 -0.349351,1.07981 -0.34935,0.34935 -1.079809,0.34935 -0.730459,0 -1.079809,-0.34935 -0.34935,-0.34935 -0.34935,-1.07981 v -20.96101 q 0,-0.73046 0.34935,-1.07981 0.34935,-0.34935 1.079809,-0.34935 0.730459,0 1.079809,0.34935 0.349351,0.34935 0.349351,1.07981 v 7.59043 q 0.444627,-1.52444 1.524436,-2.41369 1.07981,-0.88926 2.82656,-0.88926 1.270364,0 2.318415,0.44463 1.079809,0.41287 1.842027,1.20684 0.793978,0.79398 1.206846,1.90555 0.444628,1.11157 0.444628,2.47721 v 10.6393 q 0,0.73046 -0.349351,1.07981 -0.34935,0.34935 -1.079809,0.34935 -0.730459,0 -1.079809,-0.34935 -0.34935,-0.34935 -0.34935,-1.07981 v -9.81356 q 0,-0.82574 -0.222314,-1.5562 -0.222314,-0.76222 -0.666941,-1.33388 -0.412869,-0.57166 -1.048051,-0.92101 -0.635182,-0.34935 -1.492677,-0.34935 -0.857496,0 -1.587955,0.50814 -0.6987,0.50815 -1.206846,1.27036 -0.508146,0.73046 -0.793978,1.61972 -0.285831,0.88925 -0.285831,1.65147 z m 26.360064,2.60425 v -8.92431 q 0,-0.73046 0.34935,-1.07981 0.34935,-0.34935 1.079809,-0.34935 0.73046,0 1.07981,0.34935 0.34935,0.34935 0.34935,1.07981 v 15.24437 q 0,0.73046 -0.34935,1.07981 -0.34935,0.34935 -1.07981,0.34935 -0.730459,0 -1.079809,-0.34935 -0.34935,-0.34935 -0.34935,-1.07981 v -1.87379 q -0.444627,1.52444 -1.524437,2.41369 -1.079809,0.88926 -2.82656,0.88926 -1.270364,0 -2.350173,-0.41287 -1.04805,-0.44463 -1.842028,-1.2386 -0.762218,-0.79398 -1.206846,-1.90555 -0.412868,-1.11157 -0.412868,-2.47721 v -10.6393 q 0,-0.73046 0.34935,-1.07981 0.34935,-0.34935 1.079809,-0.34935 0.73046,0 1.07981,0.34935 0.34935,0.34935 0.34935,1.07981 v 9.81356 q 0,0.82574 0.222314,1.58796 0.222313,0.73046 0.635182,1.30212 0.444627,0.57167 1.079809,0.92102 0.635182,0.34935 1.492678,0.34935 0.857495,0 1.556196,-0.50815 0.730459,-0.50815 1.238605,-1.23861 0.508145,-0.76221 0.793977,-1.65147 0.285832,-0.88925 0.285832,-1.65147 z m 15.689005,0.31759 q 0,2.28665 0.666941,3.42998 0.6987,1.14333 2.032582,1.14333 0.635182,0 1.238605,-0.0953 0.603423,-0.0953 1.333882,-0.44462 0.635182,-0.34936 1.111569,-0.1588 0.508146,0.1588 0.857496,0.76222 0.381109,0.63518 0.222313,1.17508 -0.127036,0.50815 -0.730459,0.82574 -0.952773,0.50815 -2.064341,0.63518 -1.111569,0.1588 -2.445451,0.1588 -1.143328,0 -2.096101,-0.41287 -0.921014,-0.41287 -1.587955,-1.2386 -0.666941,-0.8575 -1.04805,-2.15962 -0.34935,-1.30213 -0.34935,-3.08064 l 0.03176,-12.73539 q 0,-0.63519 -0.317591,-0.95278 -0.317591,-0.31759 -0.952773,-0.31759 h -2.350173 q -0.635182,0 -0.984532,-0.31759 -0.317591,-0.34935 -0.317591,-0.98453 0,-0.63518 0.317591,-0.95278 0.34935,-0.34935 0.984532,-0.34935 h 3.938128 q 1.302123,0 1.905546,0.63519 0.635182,0.60342 0.635182,1.90554 z m 15.27614,6.00247 q 0,0.73046 -0.34935,1.07981 -0.34935,0.34935 -1.079809,0.34935 -0.730459,0 -1.07981,-0.34935 -0.34935,-0.34935 -0.34935,-1.07981 v -20.96101 q 0,-0.73046 0.34935,-1.07981 0.349351,-0.34935 1.07981,-0.34935 0.730459,0 1.079809,0.34935 0.34935,0.34935 0.34935,1.07981 v 12.13198 l 7.145799,-7.17756 q 0.34935,-0.34935 0.6987,-0.50814 0.38111,-0.1588 0.79398,-0.1588 0.44462,0 0.76221,0.19056 0.3176,0.19055 0.44463,0.50814 0.1588,0.28583 0.0953,0.63518 -0.0635,0.34935 -0.38111,0.66695 l -4.76386,4.85914 5.62136,9.46421 q 0.22231,0.34935 0.22231,0.6987 0,0.31759 -0.1588,0.57166 -0.12703,0.22232 -0.3811,0.34935 -0.25408,0.1588 -0.53991,0.1588 -0.5399,0 -1.04805,-0.12704 -0.50815,-0.0953 -0.88925,-0.76222 l -4.85915,-8.25736 -2.763039,2.7948 z m 27.598669,-3.08063 q 0.60343,0 0.98453,0.44462 0.41287,0.41287 0.41287,0.95278 0,0.28583 -0.15879,0.57166 -0.12704,0.25407 -0.50815,0.63518 -0.50814,0.47639 -1.07981,0.82574 -0.57166,0.34935 -1.2386,0.60342 -0.63518,0.25408 -1.36564,0.34935 -0.6987,0.12704 -1.49268,0.12704 -1.84203,0 -3.30295,-0.60342 -1.42916,-0.63519 -2.44545,-1.77851 -0.98453,-1.17509 -1.52444,-2.82656 -0.5399,-1.68324 -0.5399,-3.74758 0,-1.81027 0.38111,-3.46174 0.41287,-1.68323 1.27036,-2.92184 0.88926,-1.27036 2.28666,-2.00082 1.3974,-0.76222 3.42998,-0.76222 1.90555,0 3.17591,0.66694 1.27037,0.63518 2.03258,1.81027 0.79398,1.17509 1.11157,2.76304 0.34935,1.5562 0.34935,3.42999 0,0.57166 -0.41287,1.04805 -0.41286,0.44462 -1.07981,0.44462 h -9.623 q 0.12703,1.27037 0.5399,2.2549 0.41287,0.95277 1.04805,1.58795 0.63518,0.60343 1.46092,0.92102 0.8575,0.31759 1.87379,0.31759 1.42916,0 2.25489,-0.44463 0.8575,-0.44463 1.33389,-0.82573 0.25407,-0.22232 0.41286,-0.28584 0.1588,-0.0953 0.41287,-0.0953 z m -9.33717,-5.97071 h 7.74922 q 0.15879,0 0.31759,-0.19056 0.19055,-0.19055 0.19055,-0.85749 0,-0.66695 -0.25407,-1.33389 -0.25407,-0.66694 -0.76222,-1.17508 -0.47638,-0.53991 -1.20684,-0.8575 -0.6987,-0.34935 -1.58796,-0.34935 -0.98453,0 -1.77851,0.34935 -0.76222,0.34935 -1.33388,0.98453 -0.53991,0.63518 -0.88926,1.52444 -0.31759,0.8575 -0.44462,1.90555 z m 18.73787,10.4805 q -0.73046,0 -1.07981,-0.34935 -0.34935,-0.34935 -0.34935,-1.07981 v -15.24437 q 0,-0.73046 0.34935,-1.07981 0.34935,-0.34935 1.07981,-0.34935 0.73046,0 1.07981,0.34935 0.34935,0.34935 0.34935,1.07981 v 1.87379 q 0.53991,-1.52444 2.00082,-2.41369 1.49268,-0.88926 3.84286,-0.88926 1.42916,0 2.31841,0.50815 0.92101,0.50814 1.42916,1.36564 0.50815,0.85749 0.6987,2.00082 0.19055,1.14333 0.19055,2.41369 v 0.38111 q 0,0.73046 -0.34935,1.07981 -0.34935,0.34935 -1.07981,0.34935 -0.73045,0 -1.0798,-0.34935 -0.34935,-0.34935 -0.34935,-1.07981 v -0.38111 q 0,-0.73046 -0.0953,-1.3974 -0.0953,-0.6987 -0.38111,-1.2386 -0.28583,-0.53991 -0.82574,-0.8575 -0.5399,-0.31759 -1.46092,-0.31759 -0.82573,0 -1.68323,0.28583 -0.85749,0.28584 -1.58795,0.82574 -0.6987,0.5399 -1.14333,1.33388 -0.44463,0.76222 -0.44463,1.74675 v 10.00412 q 0,0.73046 -0.34935,1.07981 -0.34935,0.34935 -1.07981,0.34935 z m 19.91298,-10.4805 v 9.05134 q 0,0.73046 -0.34935,1.07981 -0.34935,0.34935 -1.07981,0.34935 -0.73046,0 -1.07981,-0.34935 -0.34935,-0.34935 -0.34935,-1.07981 v -19.53185 q 0,-1.30212 0.60342,-1.90554 0.63518,-0.63519 1.93731,-0.63519 h 4.92266 q 1.49268,0 2.7948,0.44463 1.30212,0.41287 2.25489,1.27037 0.95278,0.82573 1.49268,2.03258 0.53991,1.20684 0.53991,2.76304 0,1.5562 -0.57167,2.76304 -0.5399,1.20685 -1.49267,2.06434 -0.95278,0.82574 -2.2549,1.27037 -1.27036,0.41287 -2.76304,0.41287 z m 0,-2.85832 h 4.60507 q 0.85749,0 1.58795,-0.22232 0.76222,-0.25407 1.30213,-0.6987 0.57166,-0.44462 0.88925,-1.14332 0.34935,-0.6987 0.34935,-1.58796 0,-1.84203 -1.20684,-2.73128 -1.20685,-0.92102 -2.92184,-0.92102 h -3.33471 q -0.63518,0 -0.95277,0.31759 -0.31759,0.3176 -0.31759,0.95278 z m 20.96101,13.33882 q -1.14333,0 -2.15962,-0.38111 -0.98453,-0.38111 -1.71499,-1.23861 -0.73046,-0.88925 -1.17509,-2.28665 -0.41286,-1.42916 -0.41286,-3.52526 0,-2.19138 0.44462,-4.12868 0.44463,-1.96907 1.33388,-3.39823 0.92102,-1.46092 2.28666,-2.28665 1.3974,-0.8575 3.23943,-0.8575 1.52443,0 2.38193,0.76222 0.6987,0.63518 1.11157,1.5562 0.0635,-0.47639 0.12704,-0.92102 0.12703,-0.79398 0.5399,-1.07981 0.41287,-0.31759 1.07981,-0.31759 0.76222,0 1.04805,0.34935 0.31759,0.31759 0.19055,1.04805 -0.31759,1.87379 -0.47638,3.71582 -0.1588,1.81027 -0.12704,3.68405 0.0635,1.84203 0.31759,3.81109 0.28583,1.93731 0.79398,4.09693 0.1588,0.6987 -0.0953,1.04805 -0.25407,0.34935 -0.98453,0.34935 -0.73046,0 -1.17509,-0.34935 -0.44462,-0.34935 -0.60342,-1.04805 -0.38111,-1.5562 -0.63518,-3.01712 -0.19056,0.57167 -0.44463,1.11157 -0.6987,1.46092 -1.90554,2.38193 -1.17509,0.92102 -2.98536,0.92102 z m 0.28583,-2.85832 q 0.98453,0 1.81027,-0.50815 0.8575,-0.5399 1.46092,-1.49267 0.60342,-0.95278 0.95277,-2.28666 0.34935,-1.33388 0.34935,-2.9536 0,-0.76221 -0.0635,-1.65147 -0.0317,-0.92101 -0.28583,-1.68323 -0.25407,-0.76222 -0.82573,-1.27036 -0.53991,-0.53991 -1.58796,-0.53991 -0.98453,0 -1.84203,0.63518 -0.85749,0.60343 -1.49267,1.68324 -0.63519,1.0798 -1.0163,2.57248 -0.34935,1.49268 -0.34935,3.20767 0,2.03258 0.6987,3.17591 0.73046,1.11157 2.19138,1.11157 z m 16.95937,-7.49515 v 8.92431 q 0,0.73046 -0.34935,1.07981 -0.34935,0.34935 -1.07981,0.34935 -0.73046,0 -1.07981,-0.34935 -0.34935,-0.34935 -0.34935,-1.07981 v -15.24437 q 0,-0.73046 0.34935,-1.07981 0.34935,-0.34935 1.07981,-0.34935 0.73046,0 1.07981,0.34935 0.34935,0.34935 0.34935,1.07981 v 1.87379 q 0.44462,-1.52444 1.52443,-2.41369 1.07981,-0.88926 2.82656,-0.88926 1.27037,0 2.31842,0.44463 1.07981,0.41287 1.84203,1.20684 0.79397,0.79398 1.20684,1.90555 0.44463,1.11157 0.44463,2.47721 v 10.6393 q 0,0.73046 -0.34935,1.07981 -0.34935,0.34935 -1.07981,0.34935 -0.73046,0 -1.07981,-0.34935 -0.34935,-0.34935 -0.34935,-1.07981 v -9.81356 q 0,-0.82574 -0.22231,-1.5562 -0.22232,-0.76222 -0.66694,-1.33388 -0.41287,-0.57166 -1.04805,-0.92101 -0.63519,-0.34935 -1.49268,-0.34935 -0.8575,0 -1.58796,0.50814 -0.6987,0.50815 -1.20684,1.27036 -0.50815,0.73046 -0.79398,1.61972 -0.28583,0.88925 -0.28583,1.65147 z m 27.75747,5.84368 q 0.60342,0 0.98453,0.44462 0.41287,0.41287 0.41287,0.95278 0,0.28583 -0.15879,0.57166 -0.12704,0.25407 -0.50815,0.63518 -0.50814,0.47639 -1.07981,0.82574 -0.57166,0.34935 -1.2386,0.60342 -0.63519,0.25408 -1.36564,0.34935 -0.6987,0.12704 -1.49268,0.12704 -1.84203,0 -3.30295,-0.60342 -1.42916,-0.63519 -2.44545,-1.77851 -0.98453,-1.17509 -1.52444,-2.82656 -0.5399,-1.68324 -0.5399,-3.74758 0,-1.81027 0.38111,-3.46174 0.41287,-1.68323 1.27036,-2.92184 0.88926,-1.27036 2.28666,-2.00082 1.3974,-0.76222 3.42998,-0.76222 1.90555,0 3.17591,0.66694 1.27036,0.63518 2.03258,1.81027 0.79398,1.17509 1.11157,2.76304 0.34935,1.5562 0.34935,3.42999 0,0.57166 -0.41287,1.04805 -0.41287,0.44462 -1.07981,0.44462 h -9.623 q 0.12703,1.27037 0.5399,2.2549 0.41287,0.95277 1.04805,1.58795 0.63518,0.60343 1.46092,0.92102 0.8575,0.31759 1.87379,0.31759 1.42916,0 2.25489,-0.44463 0.8575,-0.44463 1.33388,-0.82573 0.25408,-0.22232 0.41287,-0.28584 0.1588,-0.0953 0.41287,-0.0953 z m -9.33717,-5.97071 h 7.74922 q 0.15879,0 0.31759,-0.19056 0.19055,-0.19055 0.19055,-0.85749 0,-0.66695 -0.25407,-1.33389 -0.25407,-0.66694 -0.76222,-1.17508 -0.47639,-0.53991 -1.20684,-0.8575 -0.69871,-0.34935 -1.58796,-0.34935 -0.98453,0 -1.77851,0.34935 -0.76222,0.34935 -1.33388,0.98453 -0.53991,0.63518 -0.88926,1.52444 -0.31759,0.8575 -0.44462,1.90555 z m 23.62877,3.04887 q 0,2.28665 0.66694,3.42998 0.6987,1.14333 2.03259,1.14333 0.63518,0 1.2386,-0.0953 0.60342,-0.0953 1.33388,-0.44462 0.63518,-0.34936 1.11157,-0.1588 0.50815,0.1588 0.8575,0.76222 0.38111,0.63518 0.22231,1.17508 -0.12704,0.50815 -0.73046,0.82574 -0.95277,0.50815 -2.06434,0.63518 -1.11157,0.1588 -2.44545,0.1588 -1.14333,0 -2.0961,-0.41287 -0.92102,-0.41287 -1.58796,-1.2386 -0.66694,-0.8575 -1.04805,-2.15962 -0.34935,-1.30213 -0.34935,-3.08064 l 0.0318,-12.73539 q 0,-0.63519 -0.31759,-0.95278 -0.31759,-0.31759 -0.95277,-0.31759 h -2.35018 q -0.63518,0 -0.98453,-0.31759 -0.31759,-0.34935 -0.31759,-0.98453 0,-0.63518 0.31759,-0.95278 0.34935,-0.34935 0.98453,-0.34935 h 3.93813 q 1.30213,0 1.90555,0.63519 0.63518,0.60342 0.63518,1.90554 z"
       id="text1"
       aria-label="ShulkerPanel" /><g
       id="layer1-8"
       transform="matrix(0.08448033,0,0,0.08448033,86.746072,11.758165)"><path
         id="path1"
         style="fill:#0195ff;fill-opacity:1;stroke-width:0.264583"
         transform="matrix(4.4447321,0,0,4.4447321,238.0336,444.22936)"
         d="M 142.078,77.808824 75.598454,116.19081 a 27.920007,27.920007 0 0 1 -27.920008,0 L -18.801096,77.808824 A 27.920008,27.920008 60.000001 0 1 -32.7611,53.629388 v -76.763964 a 27.920008,27.920008 120 0 1 13.960004,-24.179436 l 66.479543,-38.381982 a 27.920008,27.920008 2.6281691e-7 0 1 27.920008,0 L 142.078,-47.314012 a 27.920008,27.920008 60 0 1 13.96,24.179436 v 76.763964 a 27.920008,27.920008 120 0 1 -13.96,24.179436 z" /><path
         style="font-weight:500;font-size:202.242px;font-family:'Maple Mono';-inkscape-font-specification:'Maple Mono Medium';white-space:pre;fill:#ffffff"
         d="m 359.01348,564.72636 q -2.83139,-6.2695 -8.49416,-8.89864 -5.46054,-2.83139 -12.74125,-2.83139 -10.71883,0 -16.78609,5.66277 -6.06726,5.46054 -6.06726,13.75246 0,6.06726 1.61794,9.90986 1.82018,3.64035 4.85381,6.06726 3.03363,2.4269 7.28071,3.8426 4.24708,1.41569 9.10089,2.83138 9.90986,2.62915 18.40402,5.86502 8.49417,3.03363 14.96591,8.08968 6.47174,5.05605 10.1121,12.94349 3.8426,7.6852 3.8426,19.81972 0,9.70761 -3.23587,17.59505 -3.23588,7.88744 -9.30314,13.55022 -6.06726,5.46053 -14.76366,8.49416 -8.69641,3.03363 -20.02196,3.03363 -9.10089,0 -16.78609,-2.02242 -7.68519,-2.22466 -13.55021,-6.2695 -5.86502,-4.04484 -9.70762,-9.70762 -3.84259,-5.86502 -5.46053,-13.14573 -1.41569,-5.05605 0.80897,-8.29192 2.4269,-3.43811 7.88744,-3.43811 4.04484,0 7.07847,1.61793 3.23587,1.4157 5.25829,6.06726 2.83139,7.28071 8.89865,11.12331 6.2695,3.8426 15.57263,3.8426 6.06726,0 10.92107,-1.41569 5.05605,-1.61794 8.49416,-4.44933 3.43812,-2.83139 5.25829,-6.87623 1.82018,-4.24708 1.82018,-9.70761 0,-6.87623 -2.02242,-11.12331 -2.02242,-4.24709 -5.66277,-7.07847 -3.43812,-2.83139 -8.49417,-4.44933 -4.85381,-1.61793 -10.31434,-3.23587 -9.10089,-2.4269 -17.19057,-5.25829 -7.88744,-2.83139 -13.75246,-7.48296 -5.86501,-4.8538 -9.30313,-11.93227 -3.43811,-7.28072 -3.43811,-18.40403 0,-9.10089 3.03363,-16.3816 3.23587,-7.28071 8.89865,-12.539 5.66277,-5.46054 13.75245,-8.29193 8.08968,-2.83138 17.99954,-2.83138 8.08968,0 14.96591,2.02242 6.87623,2.02242 12.13452,5.66277 5.25829,3.64036 8.89865,8.89865 3.84259,5.25829 5.46053,11.5278 1.82018,5.46053 -0.60673,8.6964 -2.22466,3.03363 -8.08968,3.03363 -4.24708,0 -6.87622,-1.82018 -2.62915,-1.82017 -4.65157,-6.06726 z m 77.86325,54.60534 v 54.60535 q 0,5.46053 -2.62914,8.08968 -2.62915,2.4269 -7.88744,2.4269 -5.46054,0 -8.08968,-2.4269 -2.42691,-2.62915 -2.42691,-8.08968 V 551.78288 q 0,-8.69641 4.04484,-12.74125 4.24709,-4.24708 13.14574,-4.24708 h 30.94302 q 9.70762,0 18.20178,2.83138 8.49417,2.62915 14.76367,8.08968 6.47174,5.46054 9.90986,13.34798 3.64035,7.68519 3.64035,17.99954 0,10.1121 -3.64035,17.99953 -3.64036,7.88744 -9.90986,13.34798 -6.2695,5.25829 -14.76367,8.08968 -8.49416,2.83138 -18.20178,2.83138 z m 0,-20.02195 h 27.10043 q 5.25829,0 9.70762,-1.4157 4.65156,-1.41569 8.08968,-4.04484 3.43811,-2.83139 5.46053,-7.07847 2.02242,-4.24708 2.02242,-9.70761 0,-11.32556 -7.48295,-16.78609 -7.28071,-5.46053 -17.7973,-5.46053 H 445.3709 q -4.24708,0 -6.47175,2.22466 -2.02242,2.02242 -2.02242,6.2695 z"
         id="text10"
         transform="matrix(2.353298,0,0,2.353298,-431.92655,-920.24747)"
         aria-label="SP" /></g></g></svg>
