<?xml version="1.0" encoding="UTF-8" standalone="no"?>
<!-- Created with Inkscape (http://www.inkscape.org/) -->

<svg
   width="1024mm"
   height="1024mm"
   viewBox="0 0 1024 1024"
   version="1.1"
   id="svg1"
   xmlns="http://www.w3.org/2000/svg"
   xmlns:svg="http://www.w3.org/2000/svg">
  <defs
     id="defs1" />
  <g
     id="layer1">
    <path
       id="path1"
       style="fill:#0195ff;fill-opacity:1;stroke-width:0.264583"
       transform="matrix(4.4447321,0,0,4.4447321,238.0336,444.22936)"
       d="M 142.078,77.808824 75.598454,116.19081 a 27.920007,27.920007 0 0 1 -27.920008,0 L -18.801096,77.808824 A 27.920008,27.920008 60.000001 0 1 -32.7611,53.629388 v -76.763964 a 27.920008,27.920008 120 0 1 13.960004,-24.179436 l 66.479543,-38.381982 a 27.920008,27.920008 2.6281691e-7 0 1 27.920008,0 L 142.078,-47.314012 a 27.920008,27.920008 60 0 1 13.96,24.179436 v 76.763964 a 27.920008,27.920008 120 0 1 -13.96,24.179436 z" />
    <path
       style="font-weight:500;font-size:202.242px;font-family:'Maple Mono';-inkscape-font-specification:'Maple Mono Medium';white-space:pre;fill:#ffffff"
       d="m 359.01348,564.72636 q -2.83139,-6.2695 -8.49416,-8.89864 -5.46054,-2.83139 -12.74125,-2.83139 -10.71883,0 -16.78609,5.66277 -6.06726,5.46054 -6.06726,13.75246 0,6.06726 1.61794,9.90986 1.82018,3.64035 4.85381,6.06726 3.03363,2.4269 7.28071,3.8426 4.24708,1.41569 9.10089,2.83138 9.90986,2.62915 18.40402,5.86502 8.49417,3.03363 14.96591,8.08968 6.47174,5.05605 10.1121,12.94349 3.8426,7.6852 3.8426,19.81972 0,9.70761 -3.23587,17.59505 -3.23588,7.88744 -9.30314,13.55022 -6.06726,5.46053 -14.76366,8.49416 -8.69641,3.03363 -20.02196,3.03363 -9.10089,0 -16.78609,-2.02242 -7.68519,-2.22466 -13.55021,-6.2695 -5.86502,-4.04484 -9.70762,-9.70762 -3.84259,-5.86502 -5.46053,-13.14573 -1.41569,-5.05605 0.80897,-8.29192 2.4269,-3.43811 7.88744,-3.43811 4.04484,0 7.07847,1.61793 3.23587,1.4157 5.25829,6.06726 2.83139,7.28071 8.89865,11.12331 6.2695,3.8426 15.57263,3.8426 6.06726,0 10.92107,-1.41569 5.05605,-1.61794 8.49416,-4.44933 3.43812,-2.83139 5.25829,-6.87623 1.82018,-4.24708 1.82018,-9.70761 0,-6.87623 -2.02242,-11.12331 -2.02242,-4.24709 -5.66277,-7.07847 -3.43812,-2.83139 -8.49417,-4.44933 -4.85381,-1.61793 -10.31434,-3.23587 -9.10089,-2.4269 -17.19057,-5.25829 -7.88744,-2.83139 -13.75246,-7.48296 -5.86501,-4.8538 -9.30313,-11.93227 -3.43811,-7.28072 -3.43811,-18.40403 0,-9.10089 3.03363,-16.3816 3.23587,-7.28071 8.89865,-12.539 5.66277,-5.46054 13.75245,-8.29193 8.08968,-2.83138 17.99954,-2.83138 8.08968,0 14.96591,2.02242 6.87623,2.02242 12.13452,5.66277 5.25829,3.64036 8.89865,8.89865 3.84259,5.25829 5.46053,11.5278 1.82018,5.46053 -0.60673,8.6964 -2.22466,3.03363 -8.08968,3.03363 -4.24708,0 -6.87622,-1.82018 -2.62915,-1.82017 -4.65157,-6.06726 z m 77.86325,54.60534 v 54.60535 q 0,5.46053 -2.62914,8.08968 -2.62915,2.4269 -7.88744,2.4269 -5.46054,0 -8.08968,-2.4269 -2.42691,-2.62915 -2.42691,-8.08968 V 551.78288 q 0,-8.69641 4.04484,-12.74125 4.24709,-4.24708 13.14574,-4.24708 h 30.94302 q 9.70762,0 18.20178,2.83138 8.49417,2.62915 14.76367,8.08968 6.47174,5.46054 9.90986,13.34798 3.64035,7.68519 3.64035,17.99954 0,10.1121 -3.64035,17.99953 -3.64036,7.88744 -9.90986,13.34798 -6.2695,5.25829 -14.76367,8.08968 -8.49416,2.83138 -18.20178,2.83138 z m 0,-20.02195 h 27.10043 q 5.25829,0 9.70762,-1.4157 4.65156,-1.41569 8.08968,-4.04484 3.43811,-2.83139 5.46053,-7.07847 2.02242,-4.24708 2.02242,-9.70761 0,-11.32556 -7.48295,-16.78609 -7.28071,-5.46053 -17.7973,-5.46053 H 445.3709 q -4.24708,0 -6.47175,2.22466 -2.02242,2.02242 -2.02242,6.2695 z"
       id="text10"
       transform="matrix(2.353298,0,0,2.353298,-431.92655,-920.24747)"
       aria-label="SP" />
  </g>
</svg>
